<svg xmlns="http://www.w3.org/2000/svg" width="800" height="450"><path fill="#1e2538" d="M0 0h800v450H0z"/><defs><pattern id="grid-mo" width="40" height="40" patternUnits="userSpaceOnUse"><path d="M40 0H0v40" fill="none" stroke="#38bdf8" stroke-width=".15" opacity=".25"/></pattern><marker id="arr-mo" markerWidth="8" markerHeight="8" refX="6" refY="3" orient="auto"><path d="M0 0v6l8-3z" fill="#38bdf8" opacity=".75"/></marker></defs><path fill="url('#grid-mo')" d="M0 0h800v450H0z"/><text x="400" y="38" text-anchor="middle" font-family="monospace" font-size="13" fill="#38bdf8" opacity=".7" letter-spacing="2">STEREO MOSAICING — PUSHBROOM SLIT-SCAN</text><rect x="90" y="72" width="240" height="300" rx="4" fill="#161b27" fill-opacity=".55" stroke="#38bdf8" opacity=".5"/><g opacity=".18" stroke="#38bdf8" stroke-width=".9"><path d="M91 105h238M91 135h238M91 165h238M91 195h238M91 225h238M91 255h238M91 285h238M91 315h238M91 345h238"/></g><path stroke="#38bdf8" stroke-width="2" stroke-dasharray="7,4" opacity=".9" d="M210 72v300"/><path fill="#38bdf8" opacity=".07" d="M207 72h6v300h-6z"/><text x="210" y="63" text-anchor="middle" font-family="monospace" font-size="10" fill="#38bdf8" opacity=".85">slit</text><path stroke="#38bdf8" stroke-width=".8" opacity=".3" marker-end="url('#arr-mo')" d="M90 372V75"/><path stroke="#38bdf8" stroke-width=".8" opacity=".3" marker-end="url('#arr-mo')" d="M90 372h242"/><text x="55" y="222" text-anchor="middle" font-family="monospace" font-size="11" fill="#64748b" opacity=".85" transform="rotate(-90 55 222)">t (frames)</text><text x="210" y="395" text-anchor="middle" font-family="monospace" font-size="11" fill="#64748b" opacity=".85">x (position)</text><text x="79" y="93" text-anchor="end" font-family="monospace" font-size="9" fill="#38bdf8" opacity=".4">t₀</text><text x="79" y="153" text-anchor="end" font-family="monospace" font-size="9" fill="#38bdf8" opacity=".4">t₂</text><text x="79" y="223" text-anchor="end" font-family="monospace" font-size="9" fill="#38bdf8" opacity=".4">t₄</text><text x="79" y="293" text-anchor="end" font-family="monospace" font-size="9" fill="#38bdf8" opacity=".4">t₆</text><text x="79" y="363" text-anchor="end" font-family="monospace" font-size="9" fill="#38bdf8" opacity=".4">tₙ</text><text x="560" y="148" text-anchor="middle" font-family="monospace" font-size="10" fill="#38bdf8" opacity=".6" letter-spacing="1">PANORAMA OUTPUT</text><rect x="380" y="162" width="360" height="100" rx="4" fill="#161b27" fill-opacity=".65" stroke="#38bdf8" stroke-width="1.5" opacity=".8"/><g opacity=".12" stroke="#38bdf8"><path d="M381 182h358M381 198h358M381 214h358M381 230h358M381 246h358M381 262h358"/></g><g opacity=".13" stroke="#38bdf8" stroke-width=".6"><path d="M425 163v98M470 163v98M515 163v98M560 163v98M605 163v98M650 163v98M695 163v98"/></g><path d="M218 222q92 0 160-10" fill="none" stroke="#38bdf8" stroke-width="1.8" marker-end="url('#arr-mo')" opacity=".8"/><rect x="100" y="408" width="600" height="28" rx="4" fill="#161b27" opacity=".6"/><text x="400" y="426" text-anchor="middle" font-family="monospace" font-size="11" fill="#38bdf8" opacity=".7">Lucas-Kanade optical flow · Shi-Tomasi corners · NumPy · OpenCV</text></svg>