<svg xmlns="http://www.w3.org/2000/svg" width="800" height="450"><path fill="#1e2538" d="M0 0h800v450H0z"/><defs><pattern id="grid3" width="40" height="40" patternUnits="userSpaceOnUse"><path d="M40 0H0v40" fill="none" stroke="#38bdf8" stroke-width=".15" opacity=".2"/></pattern><marker id="arr3" markerWidth="8" markerHeight="8" refX="6" refY="3" orient="auto"><path d="M0 0v6l8-3z" fill="#38bdf8" opacity=".8"/></marker></defs><path fill="url('#grid3')" d="M0 0h800v450H0z"/><text x="400" y="38" text-anchor="middle" font-family="monospace" font-size="13" fill="#38bdf8" opacity=".7" letter-spacing="2">AUTONOMOUS KNOWLEDGE → ANKI PIPELINE</text><rect x="40" y="165" width="140" height="52" rx="8" fill="#161b27" stroke="#38bdf8" stroke-width="1.5" opacity=".9"/><text x="110" y="188" text-anchor="middle" font-family="monospace" font-size="11" fill="#38bdf8">Siyuan Notes</text><text x="110" y="205" text-anchor="middle" font-family="monospace" font-size="10" fill="#64748b">REST API</text><path stroke="#38bdf8" stroke-width="1.5" marker-end="url('#arr3')" opacity=".7" d="M180 191h68"/><text x="214" y="183" text-anchor="middle" font-family="monospace" font-size="9" fill="#64748b">fetch notes</text><rect x="250" y="155" width="130" height="72" rx="8" fill="#0ea5e9" fill-opacity=".12" stroke="#38bdf8" stroke-width="2"/><text x="315" y="182" text-anchor="middle" font-family="monospace" font-size="11" fill="#38bdf8">LLM Writer</text><text x="315" y="198" text-anchor="middle" font-family="monospace" font-size="10" fill="#64748b">Agent</text><text x="315" y="215" text-anchor="middle" font-family="monospace" font-size="9" fill="#475569">draft cards</text><path stroke="#38bdf8" stroke-width="1.5" marker-end="url('#arr3')" opacity=".7" d="M380 191h68"/><text x="414" y="183" text-anchor="middle" font-family="monospace" font-size="9" fill="#64748b">review</text><rect x="450" y="155" width="130" height="72" rx="8" fill="#0ea5e9" fill-opacity=".08" stroke="#38bdf8" stroke-width="2"/><text x="515" y="182" text-anchor="middle" font-family="monospace" font-size="11" fill="#38bdf8">LLM Reviewer</text><text x="515" y="198" text-anchor="middle" font-family="monospace" font-size="10" fill="#64748b">Agent</text><text x="515" y="215" text-anchor="middle" font-family="monospace" font-size="9" fill="#475569">quality check</text><path d="M515 155q0-45-200-45v45" fill="none" stroke="#38bdf8" stroke-width="1.5" stroke-dasharray="5,4" marker-end="url('#arr3')" opacity=".5"/><text x="415" y="100" text-anchor="middle" font-family="monospace" font-size="9" fill="#64748b">revision loop</text><path stroke="#38bdf8" stroke-width="1.5" marker-end="url('#arr3')" opacity=".7" d="M580 191h68"/><text x="614" y="183" text-anchor="middle" font-family="monospace" font-size="9" fill="#64748b">export</text><rect x="650" y="155" width="110" height="72" rx="8" fill="#161b27" stroke="#38bdf8" stroke-width="1.5" opacity=".9"/><text x="705" y="182" text-anchor="middle" font-family="monospace" font-size="11" fill="#38bdf8">Anki Cards</text><text x="705" y="198" text-anchor="middle" font-family="monospace" font-size="10" fill="#64748b">local .apkg</text><rect x="670" y="208" width="70" height="10" rx="2" fill="#38bdf8" opacity=".2"/><rect x="670" y="208" width="50" height="10" rx="2" fill="#38bdf8" opacity=".3"/><rect x="230" y="270" width="340" height="36" rx="6" fill="#161b27" stroke="#38bdf8" opacity=".5"/><text x="400" y="293" text-anchor="middle" font-family="monospace" font-size="11" fill="#64748b">AutoGen multi-agent framework</text><rect x="290" y="355" width="220" height="32" rx="6" fill="#161b27" stroke="#38bdf8" opacity=".6"/><text x="400" y="376" text-anchor="middle" font-family="monospace" font-size="11" fill="#38bdf8" opacity=".8">fully local — no data leaves the machine</text></svg>