<svg xmlns="http://www.w3.org/2000/svg" width="800" height="450"><path fill="#1e2538" d="M0 0h800v450H0z"/><defs><pattern id="grid2" width="40" height="40" patternUnits="userSpaceOnUse"><path d="M40 0H0v40" fill="none" stroke="#38bdf8" stroke-width=".15" opacity=".25"/></pattern></defs><path fill="url('#grid2')" d="M0 0h800v450H0z"/><text x="400" y="38" text-anchor="middle" font-family="monospace" font-size="13" fill="#38bdf8" opacity=".7" letter-spacing="2">STEREO VISUAL SLAM — 3D TRAJECTORY (KITTI)</text><path fill="none" stroke="#38bdf8" stroke-width="2.5" stroke-linecap="round" stroke-linejoin="round" opacity=".9" d="m120 360 25-20 30-22 35-20 38-16 40-12 42-7 42-1 42 4 40 8 38 11 36 13 34 16 30 16 26 17 20 17 17 14 13 10 10 6"/><circle cx="145" cy="340" r="4" fill="#38bdf8" opacity=".8"/><circle cx="210" cy="298" r="4" fill="#38bdf8" opacity=".8"/><circle cx="288" cy="270" r="4" fill="#38bdf8" opacity=".8"/><circle cx="372" cy="262" r="5" fill="#38bdf8"/><circle cx="454" cy="274" r="4" fill="#38bdf8" opacity=".8"/><circle cx="528" cy="298" r="4" fill="#38bdf8" opacity=".8"/><circle cx="592" cy="330" r="4" fill="#38bdf8" opacity=".8"/><circle cx="638" cy="364" r="4" fill="#38bdf8" opacity=".8"/><g opacity=".35" fill="#38bdf8"><circle cx="160" cy="280" r="2"/><circle cx="180" cy="250" r="1.5"/><circle cx="220" cy="230" r="2"/><circle cx="250" cy="210" r="1.5"/><circle cx="300" cy="200" r="2"/><circle cx="340" cy="195" r="1.5"/><circle cx="380" cy="192" r="2"/><circle cx="420" cy="197" r="1.5"/><circle cx="460" cy="210" r="2"/><circle cx="500" cy="222" r="1.5"/><circle cx="540" cy="240" r="2"/><circle cx="580" cy="260" r="1.5"/><circle cx="615" cy="280" r="2"/><circle cx="645" cy="300" r="1.5"/><circle cx="190" cy="310" r="1.5"/><circle cx="270" cy="250" r="2"/><circle cx="350" cy="230" r="1.5"/><circle cx="430" cy="235" r="2"/><circle cx="510" cy="260" r="1.5"/><circle cx="570" cy="290" r="2"/><circle cx="170" cy="330" r="1.5"/><circle cx="440" cy="256" r="1.5"/><circle cx="260" cy="290" r="1.5"/><circle cx="320" cy="220" r="2"/><circle cx="490" cy="240" r="1.5"/><circle cx="600" cy="310" r="1.5"/></g><path stroke="#38bdf8" opacity=".3" d="M80 390V160M80 390h640"/><text x="78" y="155" text-anchor="middle" font-family="monospace" font-size="11" fill="#64748b">Y</text><text x="724" y="393" font-family="monospace" font-size="11" fill="#64748b">X</text><text x="372" y="248" text-anchor="middle" font-family="monospace" font-size="10" fill="#38bdf8" opacity=".8">frame ~1300</text><rect x="100" y="408" width="600" height="28" rx="4" fill="#161b27" opacity=".6"/><text x="400" y="426" text-anchor="middle" font-family="monospace" font-size="11" fill="#38bdf8" opacity=".7">AKAZE features · RANSAC outlier rejection · 2,600+ frames · OpenCV</text></svg>