<svg xmlns="http://www.w3.org/2000/svg" width="800" height="450"><path fill="#1e2538" d="M0 0h800v450H0z"/><defs><pattern id="grid-mr" width="40" height="40" patternUnits="userSpaceOnUse"><path d="M40 0H0v40" fill="none" stroke="#38bdf8" stroke-width=".15" opacity=".25"/></pattern><marker id="arr-mr" markerWidth="8" markerHeight="8" refX="6" refY="3" orient="auto"><path d="M0 0v6l8-3z" fill="#38bdf8" opacity=".75"/></marker></defs><path fill="url('#grid-mr')" d="M0 0h800v450H0z"/><text x="400" y="38" text-anchor="middle" font-family="monospace" font-size="13" fill="#38bdf8" opacity=".7" letter-spacing="2">MAPREDUCE FRAMEWORK — MAP / SHUFFLE / REDUCE</text><path stroke="#38bdf8" stroke-width=".8" opacity=".2" stroke-dasharray="5,5" d="M265 52v338M535 52v338"/><text x="145" y="66" text-anchor="middle" font-family="monospace" font-size="12" fill="#38bdf8" opacity=".85" letter-spacing="1">MAP</text><text x="400" y="66" text-anchor="middle" font-family="monospace" font-size="12" fill="#38bdf8" opacity=".85" letter-spacing="1">SHUFFLE</text><text x="660" y="66" text-anchor="middle" font-family="monospace" font-size="12" fill="#38bdf8" opacity=".85" letter-spacing="1">REDUCE</text><rect x="60" y="100" width="115" height="32" rx="5" fill="#161b27" stroke="#38bdf8" stroke-width="1.5" opacity=".9"/><text x="117" y="121" text-anchor="middle" font-family="monospace" font-size="11" fill="#38bdf8">input[0]</text><rect x="60" y="157" width="115" height="32" rx="5" fill="#161b27" stroke="#38bdf8" stroke-width="1.5" opacity=".9"/><text x="117" y="178" text-anchor="middle" font-family="monospace" font-size="11" fill="#38bdf8">input[1]</text><rect x="60" y="214" width="115" height="32" rx="5" fill="#161b27" stroke="#38bdf8" stroke-width="1.5" opacity=".9"/><text x="117" y="235" text-anchor="middle" font-family="monospace" font-size="11" fill="#38bdf8">input[2]</text><rect x="60" y="271" width="115" height="32" rx="5" fill="#161b27" stroke="#38bdf8" stroke-width="1.5" opacity=".9"/><text x="117" y="292" text-anchor="middle" font-family="monospace" font-size="11" fill="#38bdf8">input[3]</text><rect x="60" y="325" width="130" height="22" rx="4" fill="#0ea5e9" fill-opacity=".08" stroke="#38bdf8" stroke-width=".8" opacity=".75"/><text x="125" y="340" text-anchor="middle" font-family="monospace" font-size="9" fill="#38bdf8" opacity=".8">atomic&lt;uint64_t&gt;</text><path stroke="#38bdf8" stroke-width="1.2" marker-end="url('#arr-mr')" opacity=".65" d="m175 116 110 27"/><path stroke="#38bdf8" stroke-width="1.2" marker-end="url('#arr-mr')" opacity=".65" d="m175 173 110 32"/><path stroke="#38bdf8" stroke-width="1.2" marker-end="url('#arr-mr')" opacity=".65" d="m175 230 110 18"/><path stroke="#38bdf8" stroke-width="1.2" marker-end="url('#arr-mr')" opacity=".65" d="m175 287 110 15"/><rect x="285" y="112" width="130" height="52" rx="5" fill="#161b27" stroke="#38bdf8" opacity=".75"/><text x="298" y="129" font-family="monospace" font-size="10" fill="#38bdf8" opacity=".6">K1</text><rect x="312" y="133" width="18" height="18" rx="3" fill="#38bdf8" opacity=".45"/><rect x="336" y="133" width="18" height="18" rx="3" fill="#38bdf8" opacity=".45"/><rect x="360" y="133" width="18" height="18" rx="3" fill="#38bdf8" opacity=".45"/><rect x="285" y="184" width="130" height="52" rx="5" fill="#161b27" stroke="#38bdf8" opacity=".75"/><text x="298" y="201" font-family="monospace" font-size="10" fill="#38bdf8" opacity=".6">K2</text><rect x="312" y="205" width="18" height="18" rx="3" fill="#38bdf8" opacity=".55"/><rect x="336" y="205" width="18" height="18" rx="3" fill="#38bdf8" opacity=".55"/><rect x="285" y="256" width="130" height="72" rx="5" fill="#161b27" stroke="#38bdf8" opacity=".75"/><text x="298" y="273" font-family="monospace" font-size="10" fill="#38bdf8" opacity=".6">K3</text><rect x="312" y="277" width="18" height="18" rx="3" fill="#38bdf8" opacity=".35"/><rect x="336" y="277" width="18" height="18" rx="3" fill="#38bdf8" opacity=".35"/><rect x="360" y="277" width="18" height="18" rx="3" fill="#38bdf8" opacity=".35"/><rect x="312" y="301" width="18" height="18" rx="3" fill="#38bdf8" opacity=".35"/><text x="540" y="176" font-family="monospace" font-size="9" fill="#38bdf8" opacity=".45">barrier</text><text x="540" y="188" font-family="monospace" font-size="9" fill="#38bdf8" opacity=".45">sync</text><path stroke="#38bdf8" stroke-width="1.2" marker-end="url('#arr-mr')" opacity=".65" d="m415 138 138 14"/><path stroke="#38bdf8" stroke-width="1.2" marker-end="url('#arr-mr')" opacity=".65" d="m415 210 138 8"/><path stroke="#38bdf8" stroke-width="1.2" marker-end="url('#arr-mr')" opacity=".65" d="M415 285h138"/><rect x="556" y="122" width="115" height="50" rx="5" fill="#161b27" stroke="#38bdf8" stroke-width="1.5" opacity=".9"/><text x="613" y="152" text-anchor="middle" font-family="monospace" font-size="11" fill="#38bdf8">out[K1]</text><rect x="556" y="193" width="115" height="50" rx="5" fill="#161b27" stroke="#38bdf8" stroke-width="1.5" opacity=".9"/><text x="613" y="223" text-anchor="middle" font-family="monospace" font-size="11" fill="#38bdf8">out[K2]</text><rect x="556" y="260" width="115" height="50" rx="5" fill="#161b27" stroke="#38bdf8" stroke-width="1.5" opacity=".9"/><text x="613" y="290" text-anchor="middle" font-family="monospace" font-size="11" fill="#38bdf8">out[K3]</text><rect x="100" y="408" width="600" height="28" rx="4" fill="#161b27" opacity=".6"/><text x="400" y="426" text-anchor="middle" font-family="monospace" font-size="11" fill="#38bdf8" opacity=".7">C++17 · pthreads · std::atomic work-stealing · pthread_barrier</text></svg>