<svg xmlns="http://www.w3.org/2000/svg" width="800" height="450"><path fill="#1e2538" d="M0 0h800v450H0z"/><defs><pattern id="grid" width="40" height="40" patternUnits="userSpaceOnUse"><path d="M40 0H0v40" fill="none" stroke="#38bdf8" stroke-width=".15" opacity=".3"/></pattern></defs><path fill="url('#grid')" d="M0 0h800v450H0z"/><text x="400" y="38" text-anchor="middle" font-family="monospace" font-size="13" fill="#38bdf8" opacity=".7" letter-spacing="2">THREAD STATE DIAGRAM</text><rect x="60" y="160" width="130" height="48" rx="8" fill="#161b27" stroke="#38bdf8" stroke-width="1.5" opacity=".9"/><text x="125" y="189" text-anchor="middle" font-family="monospace" font-size="13" fill="#38bdf8">READY</text><rect x="335" y="160" width="130" height="48" rx="8" fill="#0ea5e9" fill-opacity=".15" stroke="#38bdf8" stroke-width="2"/><text x="400" y="189" text-anchor="middle" font-family="monospace" font-size="13" fill="#38bdf8">RUNNING</text><rect x="335" y="290" width="130" height="48" rx="8" fill="#161b27" stroke="#38bdf8" stroke-width="1.5" opacity=".7"/><text x="400" y="319" text-anchor="middle" font-family="monospace" font-size="13" fill="#64748b">BLOCKED</text><rect x="610" y="160" width="130" height="48" rx="8" fill="#161b27" stroke="#38bdf8" opacity=".5"/><text x="675" y="189" text-anchor="middle" font-family="monospace" font-size="11" fill="#475569">TERMINATED</text><defs><marker id="arr" markerWidth="8" markerHeight="8" refX="6" refY="3" orient="auto"><path d="M0 0v6l8-3z" fill="#38bdf8" opacity=".8"/></marker><marker id="arr-dim" markerWidth="8" markerHeight="8" refX="6" refY="3" orient="auto"><path d="M0 0v6l8-3z" fill="#64748b" opacity=".6"/></marker></defs><path stroke="#38bdf8" stroke-width="1.5" marker-end="url('#arr')" opacity=".8" d="M190 184h143"/><text x="262" y="175" text-anchor="middle" font-family="monospace" font-size="10" fill="#38bdf8" opacity=".7">schedule</text><path stroke="#38bdf8" stroke-width="1.5" marker-end="url('#arr')" opacity=".6" d="M335 196H192"/><text x="262" y="210" text-anchor="middle" font-family="monospace" font-size="10" fill="#38bdf8" opacity=".6">SIGVTALRM</text><path stroke="#38bdf8" stroke-width="1.5" marker-end="url('#arr')" opacity=".7" d="M400 208v80"/><text x="418" y="252" font-family="monospace" font-size="10" fill="#64748b">sleep()</text><path d="M335 314q-135 36-210-106" fill="none" stroke="#38bdf8" stroke-width="1.5" marker-end="url('#arr')" opacity=".6"/><text x="195" y="355" font-family="monospace" font-size="10" fill="#64748b">wake</text><path stroke="#64748b" stroke-width="1.5" marker-end="url('#arr-dim')" opacity=".6" d="M465 184h143"/><text x="536" y="175" text-anchor="middle" font-family="monospace" font-size="10" fill="#475569">terminate</text><ellipse cx="60" cy="90" rx="42" ry="22" fill="#161b27" stroke="#38bdf8" opacity=".5"/><text x="60" y="95" text-anchor="middle" font-family="monospace" font-size="11" fill="#64748b">NEW</text><path stroke="#38bdf8" stroke-width="1.5" marker-end="url('#arr')" opacity=".5" d="m80 112 30 46"/><text x="60" y="142" font-family="monospace" font-size="10" fill="#64748b">spawn</text><text x="400" y="415" text-anchor="middle" font-family="monospace" font-size="11" fill="#38bdf8" opacity=".5">context switch via sigsetjmp / siglongjmp</text></svg>