<svg xmlns="http://www.w3.org/2000/svg" width="800" height="450"><path fill="#1e2538" d="M0 0h800v450H0z"/><defs><pattern id="grid4" width="40" height="40" patternUnits="userSpaceOnUse"><path d="M40 0H0v40" fill="none" stroke="#38bdf8" stroke-width=".15" opacity=".2"/></pattern></defs><path fill="url('#grid4')" d="M0 0h800v450H0z"/><text x="400" y="38" text-anchor="middle" font-family="monospace" font-size="13" fill="#38bdf8" opacity=".7" letter-spacing="2">SECURE TODO REST API</text><rect x="80" y="60" width="640" height="32" rx="6" fill="#0ea5e9" fill-opacity=".15" stroke="#38bdf8"/><text x="148" y="81" text-anchor="middle" font-family="monospace" font-size="11" fill="#38bdf8">METHOD</text><text x="320" y="81" text-anchor="middle" font-family="monospace" font-size="11" fill="#38bdf8">ENDPOINT</text><text x="540" y="81" text-anchor="middle" font-family="monospace" font-size="11" fill="#38bdf8">AUTH</text><text x="680" y="81" text-anchor="middle" font-family="monospace" font-size="11" fill="#38bdf8">DESCRIPTION</text><path stroke="#38bdf8" stroke-width=".5" opacity=".3" d="M80 92h640"/><rect x="100" y="100" width="80" height="22" rx="3" fill="#22c55e" fill-opacity=".2"/><text x="140" y="115" text-anchor="middle" font-family="monospace" font-size="10" fill="#22c55e">POST</text><text x="320" y="115" text-anchor="middle" font-family="monospace" font-size="10" fill="#94a3b8">/auth/register</text><text x="540" y="115" text-anchor="middle" font-family="monospace" font-size="10" fill="#64748b">—</text><text x="672" y="115" text-anchor="middle" font-family="monospace" font-size="10" fill="#64748b">Register user</text><rect x="100" y="128" width="80" height="22" rx="3" fill="#22c55e" fill-opacity=".2"/><text x="140" y="143" text-anchor="middle" font-family="monospace" font-size="10" fill="#22c55e">POST</text><text x="320" y="143" text-anchor="middle" font-family="monospace" font-size="10" fill="#94a3b8">/auth/login</text><text x="540" y="143" text-anchor="middle" font-family="monospace" font-size="10" fill="#64748b">—</text><text x="672" y="143" text-anchor="middle" font-family="monospace" font-size="10" fill="#64748b">Login → JWT</text><rect x="100" y="156" width="80" height="22" rx="3" fill="#38bdf8" fill-opacity=".15"/><text x="140" y="171" text-anchor="middle" font-family="monospace" font-size="10" fill="#38bdf8">GET</text><text x="320" y="171" text-anchor="middle" font-family="monospace" font-size="10" fill="#94a3b8">/todos</text><text x="540" y="171" text-anchor="middle" font-family="monospace" font-size="10" fill="#38bdf8">JWT</text><text x="672" y="171" text-anchor="middle" font-family="monospace" font-size="10" fill="#64748b">List todos</text><rect x="100" y="184" width="80" height="22" rx="3" fill="#22c55e" fill-opacity=".2"/><text x="140" y="199" text-anchor="middle" font-family="monospace" font-size="10" fill="#22c55e">POST</text><text x="320" y="199" text-anchor="middle" font-family="monospace" font-size="10" fill="#94a3b8">/todos</text><text x="540" y="199" text-anchor="middle" font-family="monospace" font-size="10" fill="#38bdf8">JWT</text><text x="672" y="199" text-anchor="middle" font-family="monospace" font-size="10" fill="#64748b">Create todo</text><rect x="100" y="212" width="80" height="22" rx="3" fill="#f59e0b" fill-opacity=".15"/><text x="140" y="227" text-anchor="middle" font-family="monospace" font-size="10" fill="#f59e0b">PUT</text><text x="320" y="227" text-anchor="middle" font-family="monospace" font-size="10" fill="#94a3b8">/todos/:id</text><text x="540" y="227" text-anchor="middle" font-family="monospace" font-size="10" fill="#38bdf8">JWT</text><text x="672" y="227" text-anchor="middle" font-family="monospace" font-size="10" fill="#64748b">Update todo</text><rect x="100" y="240" width="80" height="22" rx="3" fill="#ef4444" fill-opacity=".15"/><text x="140" y="255" text-anchor="middle" font-family="monospace" font-size="10" fill="#ef4444">DELETE</text><text x="320" y="255" text-anchor="middle" font-family="monospace" font-size="10" fill="#94a3b8">/todos/:id</text><text x="540" y="255" text-anchor="middle" font-family="monospace" font-size="10" fill="#38bdf8">JWT</text><text x="672" y="255" text-anchor="middle" font-family="monospace" font-size="10" fill="#64748b">Delete todo</text><rect x="80" y="300" width="90" height="26" rx="5" fill="#161b27" stroke="#38bdf8" opacity=".8"/><text x="125" y="317" text-anchor="middle" font-family="monospace" font-size="10" fill="#38bdf8">Node.js</text><rect x="182" y="300" width="90" height="26" rx="5" fill="#161b27" stroke="#38bdf8" opacity=".8"/><text x="227" y="317" text-anchor="middle" font-family="monospace" font-size="10" fill="#38bdf8">Express</text><rect x="284" y="300" width="90" height="26" rx="5" fill="#161b27" stroke="#38bdf8" opacity=".8"/><text x="329" y="317" text-anchor="middle" font-family="monospace" font-size="10" fill="#38bdf8">JWT</text><rect x="386" y="300" width="90" height="26" rx="5" fill="#161b27" stroke="#38bdf8" opacity=".8"/><text x="431" y="317" text-anchor="middle" font-family="monospace" font-size="10" fill="#38bdf8">MongoDB</text><rect x="488" y="300" width="130" height="26" rx="5" fill="#161b27" stroke="#38bdf8" opacity=".8"/><text x="553" y="317" text-anchor="middle" font-family="monospace" font-size="10" fill="#38bdf8">GitHub Actions</text><rect x="80" y="355" width="640" height="44" rx="6" fill="#161b27" stroke="#38bdf8" opacity=".4"/><text x="400" y="374" text-anchor="middle" font-family="monospace" font-size="11" fill="#64748b">CI/CD · push → test → lint → deploy</text><text x="400" y="390" text-anchor="middle" font-family="monospace" font-size="10" fill="#475569">GitHub Actions pipeline · input validation · bcrypt password hashing</text></svg>